<svg version="1.0" xmlns="http://www.w3.org/2000/svg"
 width="24px" height="24px" viewBox="0 0 512.000000 512.000000"
 preserveAspectRatio="xMidYMid meet">

<g transform="translate(0.000000,512.000000) scale(0.100000,-0.100000)"
fill="#000000" stroke="none">
<path d="M3218 4430 c-109 -19 -247 -79 -354 -155 -75 -54 -178 -164 -222
-238 -89 -147 -141 -337 -127 -459 8 -69 18 -74 123 -63 296 30 558 264 662
590 17 52 24 104 27 203 l6 132 -34 -1 c-19 -1 -55 -5 -81 -9z"/>
<path d="M3085 3535 c-79 -17 -160 -43 -330 -106 -173 -63 -181 -63 -402 20
-211 79 -318 99 -455 83 -445 -53 -769 -385 -853 -877 -22 -131 -23 -372 0
-520 35 -234 106 -465 209 -680 75 -156 137 -258 252 -412 154 -207 285 -314
427 -349 91 -23 190 -9 334 47 191 73 222 81 333 86 127 6 194 -8 348 -71 128
-52 188 -66 288 -66 89 0 171 25 253 77 180 114 456 515 575 835 20 53 36 103
36 111 0 7 -16 19 -35 26 -87 31 -246 161 -321 261 -43 59 -94 168 -116 249
-29 111 -29 289 0 394 50 179 169 343 325 449 31 21 57 41 57 45 0 3 -16 27
-35 53 -54 73 -175 183 -254 230 -179 106 -451 156 -636 115z"/>
</g>
</svg>
